<svg width="32" height="32" viewBox="0 0 32 32" fill="none" xmlns="http://www.w3.org/2000/svg">
<g clip-path="url(#clip0_3999_28973)">
<circle cx="16" cy="16" r="16" fill="white"/>
<circle cx="16" cy="16" r="14" fill="url(#paint0_radial_3999_28973)"/>
<circle cx="16" cy="16" r="14" fill="url(#paint1_linear_3999_28973)"/>
<circle cx="16" cy="16" r="14" fill="url(#paint2_linear_3999_28973)"/>
<path fill-rule="evenodd" clip-rule="evenodd" d="M15.9998 9.44138C18.136 9.44138 18.3888 9.44964 19.2325 9.48806C20.0125 9.52363 20.4361 9.65383 20.7181 9.76338C21.0915 9.9085 21.3579 10.0819 21.638 10.3617C21.9181 10.6417 22.0915 10.9082 22.2363 11.2816C22.3459 11.5636 22.4761 11.9872 22.5116 12.7671C22.55 13.6106 22.5583 13.8637 22.5583 15.9998C22.5583 18.136 22.55 18.3888 22.5116 19.2325C22.4761 20.0125 22.3459 20.4361 22.2363 20.7181C22.0912 21.0915 21.9178 21.3579 21.638 21.638C21.3579 21.9181 21.0915 22.0915 20.7181 22.2363C20.4361 22.3459 20.0125 22.4761 19.2325 22.5116C18.3891 22.55 18.136 22.5583 15.9998 22.5583C13.8637 22.5583 13.6106 22.55 12.7671 22.5116C11.9872 22.4761 11.5636 22.3459 11.2816 22.2363C10.9082 22.0912 10.6417 21.9178 10.3617 21.638C10.0816 21.3579 9.90819 21.0915 9.76338 20.7181C9.65383 20.4361 9.52363 20.0125 9.48806 19.2325C9.44964 18.3891 9.44138 18.136 9.44138 15.9998C9.44138 13.8637 9.44964 13.6109 9.48806 12.7671C9.52363 11.9872 9.65383 11.5636 9.76338 11.2816C9.9085 10.9082 10.0819 10.6417 10.3617 10.3617C10.6417 10.0816 10.9082 9.90819 11.2816 9.76338C11.5636 9.65383 11.9872 9.52363 12.7671 9.48806C13.6109 9.44964 13.8637 9.44138 15.9998 9.44138ZM15.9998 8C13.8271 8 13.5547 8.00921 12.7014 8.04827C11.85 8.08701 11.2683 8.22229 10.7596 8.42013C10.2334 8.62463 9.7872 8.89805 9.34262 9.34294C8.89805 9.78752 8.62431 10.2337 8.41981 10.7596C8.22197 11.2683 8.08669 11.85 8.04795 12.7014C8.00921 13.5547 8 13.8271 8 15.9998C8 18.1726 8.00921 18.445 8.04827 19.2983C8.08701 20.1496 8.22229 20.7314 8.42013 21.2401C8.62463 21.7663 8.89805 22.2125 9.34294 22.6571C9.78783 23.102 10.2337 23.3754 10.7599 23.5799C11.2686 23.7777 11.8504 23.913 12.7017 23.9517C13.555 23.9908 13.8274 24 16.0002 24C18.1729 24 18.4453 23.9908 19.2986 23.9517C20.15 23.913 20.7317 23.7777 21.2404 23.5799C21.7666 23.3754 22.2128 23.102 22.6574 22.6571C23.1023 22.2122 23.3757 21.7663 23.5802 21.2401C23.778 20.7314 23.9133 20.1496 23.952 19.2983C23.9911 18.445 24.0003 18.1726 24.0003 15.9998C24.0003 13.8271 23.9911 13.5547 23.952 12.7014C23.9133 11.85 23.778 11.2683 23.5802 10.7596C23.3757 10.2334 23.1023 9.7872 22.6574 9.34262C22.2125 8.89773 21.7666 8.62431 21.2404 8.41981C20.7317 8.22197 20.15 8.08669 19.2986 8.04795C18.445 8.00921 18.1726 8 15.9998 8ZM15.9999 11.892C13.731 11.892 11.892 13.7312 11.892 15.9999C11.892 18.2685 13.731 20.1077 15.9999 20.1077C18.2689 20.1077 20.1078 18.2688 20.1078 15.9999C20.1078 13.7309 18.2689 11.892 15.9999 11.892ZM15.9999 18.6664C14.5271 18.6664 13.3334 17.4724 13.3334 15.9999C13.3334 14.5274 14.5274 13.3334 15.9999 13.3334C17.4727 13.3334 18.6664 14.5274 18.6664 15.9999C18.6664 17.4724 17.4727 18.6664 15.9999 18.6664ZM21.2303 11.7294C21.2303 12.2596 20.8006 12.6894 20.2704 12.6894C19.7402 12.6894 19.3104 12.2596 19.3104 11.7294C19.3104 11.1992 19.7402 10.7694 20.2704 10.7694C20.8006 10.7694 21.2303 11.1992 21.2303 11.7294Z" fill="white"/>
</g>
<defs>
<radialGradient id="paint0_radial_3999_28973" cx="0" cy="0" r="1" gradientUnits="userSpaceOnUse" gradientTransform="translate(6.18053 30.0971) scale(35.777)">
<stop stop-color="#FFB140"/>
<stop offset="0.256" stop-color="#FF5445"/>
<stop offset="0.599" stop-color="#FC2B82"/>
<stop offset="1" stop-color="#8E40B7"/>
</radialGradient>
<linearGradient id="paint1_linear_3999_28973" x1="6.15625" y1="0.6875" x2="11.1875" y2="11.625" gradientUnits="userSpaceOnUse">
<stop stop-color="#4F67CE"/>
<stop offset="1" stop-color="#4F67CE" stop-opacity="0"/>
</linearGradient>
<linearGradient id="paint2_linear_3999_28973" x1="6.375" y1="29.125" x2="12.7187" y2="21.6875" gradientUnits="userSpaceOnUse">
<stop stop-color="#F8D886"/>
<stop offset="1" stop-color="#F8D886" stop-opacity="0"/>
</linearGradient>
<clipPath id="clip0_3999_28973">
<rect width="32" height="32" fill="white"/>
</clipPath>
</defs>
</svg>
