<svg width="32" height="32" viewBox="0 0 32 32" fill="none" xmlns="http://www.w3.org/2000/svg">
<g clip-path="url(#clip0_15400_1056)">
<circle cx="16" cy="16" r="16" fill="white"/>
<circle cx="16" cy="16" r="14" fill="url(#paint0_linear_15400_1056)"/>
<circle cx="16" cy="16" r="14" fill="url(#paint1_radial_15400_1056)"/>
<circle cx="16" cy="16" r="14" fill="url(#paint2_radial_15400_1056)"/>
<path fill-rule="evenodd" clip-rule="evenodd" d="M16.1719 23.8853C14.6017 23.8853 13.872 23.6561 12.6036 22.7392C11.8013 23.7707 9.26074 24.5768 9.14995 23.1977C9.14995 22.1623 8.92072 21.2874 8.66093 20.3323C8.35148 19.1557 8 17.8452 8 15.9465C8 11.4116 11.7211 8 16.1299 8C20.5425 8 24 11.5797 24 15.9885C24.0148 20.3291 20.5125 23.8622 16.1719 23.8853ZM16.2368 11.9198C14.0898 11.809 12.4164 13.2951 12.0458 15.6256C11.7402 17.5549 12.2827 19.9045 12.745 20.0267C12.9666 20.0802 13.5243 19.6294 13.872 19.2817C14.4469 19.6789 15.1163 19.9174 15.8128 19.9732C18.0375 20.0802 19.9384 18.3865 20.0878 16.1643C20.1748 13.9373 18.4619 12.051 16.2368 11.9236L16.2368 11.9198Z" fill="white"/>
</g>
<defs>
<linearGradient id="paint0_linear_15400_1056" x1="2" y1="16" x2="30" y2="20.41" gradientUnits="userSpaceOnUse">
<stop stop-color="#0A7AFF"/>
<stop offset="0.4" stop-color="#3D5BFF"/>
<stop offset="0.7" stop-color="#6A38FF"/>
<stop offset="1" stop-color="#9F4BFF"/>
</linearGradient>
<radialGradient id="paint1_radial_15400_1056" cx="0" cy="0" r="1" gradientUnits="userSpaceOnUse" gradientTransform="translate(11.73 11.8) scale(15.12 12.7726)">
<stop stop-color="#1937F5"/>
<stop offset="1" stop-color="#1937F5" stop-opacity="0"/>
</radialGradient>
<radialGradient id="paint2_radial_15400_1056" cx="0" cy="0" r="1" gradientUnits="userSpaceOnUse" gradientTransform="translate(5.5 27.97) scale(24.5 14.2878)">
<stop stop-color="#43C5FD" stop-opacity="0.9"/>
<stop offset="1" stop-color="#43C5FD" stop-opacity="0"/>
</radialGradient>
<clipPath id="clip0_15400_1056">
<rect width="32" height="32" fill="white"/>
</clipPath>
</defs>
</svg>
