<svg width="32" height="32" viewBox="0 0 32 32" fill="none" xmlns="http://www.w3.org/2000/svg">
<g clip-path="url(#clip0_3999_28992)">
<circle cx="16" cy="16" r="16" fill="white"/>
<circle cx="16" cy="16" r="14" fill="#E60019"/>
<path d="M16 30C23.732 30 30 23.732 30 16C30 8.26801 23.732 2 16 2C8.26801 2 2 8.26801 2 16C2 23.732 8.26801 30 16 30Z" fill="white"/>
<path d="M16.0115 2C8.27346 2 2 8.26316 2 15.9885C2 21.9178 5.69027 26.9836 10.9028 29.0214C10.7759 27.9161 10.6721 26.2122 10.9489 25.0033C11.2026 23.9095 12.5865 18.0493 12.5865 18.0493C12.5865 18.0493 12.1713 17.2089 12.1713 15.977C12.1713 14.0312 13.3015 12.5806 14.7084 12.5806C15.9077 12.5806 16.4843 13.4786 16.4843 14.5493C16.4843 15.7467 15.7232 17.5428 15.3196 19.2122C14.9851 20.6053 16.023 21.7451 17.3954 21.7451C19.8863 21.7451 21.8006 19.1201 21.8006 15.3438C21.8006 11.9934 19.3904 9.65625 15.9423 9.65625C11.9522 9.65625 9.61119 12.6382 9.61119 15.7237C9.61119 16.9211 10.0725 18.2105 10.6491 18.9128C10.7644 19.051 10.7759 19.1776 10.7413 19.3158C10.6375 19.7533 10.3954 20.7089 10.3492 20.9046C10.2916 21.1579 10.1417 21.2155 9.87642 21.0888C8.12354 20.2714 7.028 17.727 7.028 15.6661C7.028 11.2566 10.2339 7.20395 16.2883 7.20395C21.1433 7.20395 24.9258 10.6579 24.9258 15.2862C24.9258 20.1102 21.8813 23.9901 17.6606 23.9901C16.2421 23.9901 14.9044 23.2533 14.4547 22.3783C14.4547 22.3783 13.7512 25.0493 13.5782 25.7056C13.2669 26.926 12.4135 28.4457 11.8369 29.3783C13.1515 29.7812 14.5354 30 15.9884 30C23.7265 30 29.9999 23.7368 29.9999 16.0115C30.023 8.26316 23.7495 2 16.0115 2Z" fill="#E60019"/>
</g>
<defs>
<clipPath id="clip0_3999_28992">
<rect width="32" height="32" fill="white"/>
</clipPath>
</defs>
</svg>
