<svg width="32" height="32" viewBox="0 0 32 32" fill="none" xmlns="http://www.w3.org/2000/svg">
<g clip-path="url(#clip0_3999_29010)">
<circle cx="16" cy="16" r="16" fill="white"/>
<circle cx="16" cy="16" r="14" fill="url(#paint0_linear_3999_29010)"/>
<path fill-rule="evenodd" clip-rule="evenodd" d="M9.43104 15.873C12.9293 14.3488 15.262 13.344 16.4292 12.8586C19.7617 11.4725 20.4542 11.2317 20.9055 11.2237C21.0048 11.222 21.2267 11.2466 21.3705 11.3632C21.4919 11.4617 21.5253 11.5948 21.5413 11.6882C21.5573 11.7816 21.5772 11.9944 21.5614 12.1606C21.3808 14.0581 20.5994 18.6628 20.2018 20.788C20.0336 21.6872 19.7024 21.9888 19.3817 22.0183C18.6849 22.0824 18.1557 21.5577 17.4808 21.1153C16.4246 20.423 15.8279 19.992 14.8028 19.3164C13.618 18.5357 14.386 18.1066 15.0612 17.4053C15.2379 17.2217 18.3083 14.429 18.3677 14.1756C18.3752 14.144 18.3821 14.0258 18.3119 13.9635C18.2417 13.9011 18.1382 13.9224 18.0635 13.9394C17.9575 13.9634 16.2703 15.0786 13.0018 17.285C12.5229 17.6138 12.0891 17.7741 11.7004 17.7657C11.272 17.7564 10.4478 17.5234 9.83508 17.3242C9.08358 17.08 8.4863 16.9508 8.53831 16.5359C8.5654 16.3198 8.86298 16.0989 9.43104 15.873Z" fill="white"/>
</g>
<defs>
<linearGradient id="paint0_linear_3999_29010" x1="16" y1="2" x2="16" y2="29.7923" gradientUnits="userSpaceOnUse">
<stop stop-color="#2AABEE"/>
<stop offset="1" stop-color="#229ED9"/>
</linearGradient>
<clipPath id="clip0_3999_29010">
<rect width="32" height="32" fill="white"/>
</clipPath>
</defs>
</svg>
