<svg width="16" height="16" viewBox="0 0 16 16" fill="none" xmlns="http://www.w3.org/2000/svg">
    <path d="M4.53125 1C4.06719 1 3.6875 1.37969 3.6875 1.84375V13.6562C3.6875 14.1203 4.06719 14.5 4.53125 14.5H12.9688C13.4328 14.5 13.8125 14.1203 13.8125 13.6562V4.375L10.4375 1H4.53125Z" fill="#E6E8EE"/>
    <path d="M11.2812 4.375H13.8125L10.4375 1V3.53125C10.4375 3.99531 10.8172 4.375 11.2812 4.375Z" fill="#A6A9B5"/>
    <path d="M12.125 11.9688C12.125 12.2008 11.9352 12.3906 11.7031 12.3906H2.42188C2.18984 12.3906 2 12.2008 2 11.9688V7.75C2 7.51797 2.18984 7.32812 2.42188 7.32812H11.7031C11.9352 7.32812 12.125 7.51797 12.125 7.75V11.9688Z" fill="#F90043"/>
    <path d="M3.83984 8.99325C3.83984 8.88188 3.92759 8.76038 4.06892 8.76038H4.84812C5.28687 8.76038 5.68175 9.054 5.68175 9.61678C5.68175 10.15 5.28687 10.447 4.84812 10.447H4.28492V10.8925C4.28492 11.041 4.19042 11.125 4.06892 11.125C3.95755 11.125 3.83984 11.041 3.83984 10.8925V8.99325ZM4.28492 9.1852V10.0256H4.84812C5.07425 10.0256 5.25312 9.82603 5.25312 9.61678C5.25312 9.38095 5.07425 9.1852 4.84812 9.1852H4.28492Z" fill="white"/>
    <path d="M6.34225 11.1249C6.23087 11.1249 6.10938 11.0641 6.10938 10.9161V8.9999C6.10938 8.87882 6.23087 8.79065 6.34225 8.79065H7.1147C8.65623 8.79065 8.62248 11.1249 7.14508 11.1249H6.34225ZM6.55487 9.2024V10.7136H7.1147C8.02553 10.7136 8.06603 9.2024 7.1147 9.2024H6.55487Z" fill="white"/>
    <path d="M9.1698 9.22933V9.76554H10.03C10.1515 9.76554 10.273 9.88704 10.273 10.0047C10.273 10.1161 10.1515 10.2072 10.03 10.2072H9.1698V10.9156C9.1698 11.0337 9.08584 11.1244 8.96772 11.1244C8.81922 11.1244 8.72852 11.0337 8.72852 10.9156V8.99941C8.72852 8.87833 8.81964 8.79016 8.96772 8.79016H10.1519C10.3004 8.79016 10.3882 8.87833 10.3882 8.99941C10.3882 9.10741 10.3004 9.22891 10.1519 9.22891H9.1698V9.22933Z" fill="white"/>
</svg>
